<?xml version="1.0" encoding="utf-8"?><!-- Uploaded to: SVG Repo, www.svgrepo.com, Generator: SVG Repo Mixer Tools -->
<svg fill="#000000" width="800px" height="800px" viewBox="0 0 24 24" id="coffee-2" data-name="Line Color" xmlns="http://www.w3.org/2000/svg" class="icon line-color"><path id="secondary" d="M10,5V3m4,2V3m4,2V3" style="fill: none; stroke: rgb(44, 169, 188); stroke-linecap: round; stroke-linejoin: round; stroke-width: 2;"></path><path id="primary" d="M8.83,11H7.25A2.25,2.25,0,0,0,5,13.25H5a2.25,2.25,0,0,0,1.7,2.18L9,16" style="fill: none; stroke: rgb(0, 0, 0); stroke-linecap: round; stroke-linejoin: round; stroke-width: 2;"></path><path id="primary-2" data-name="primary" d="M10.81,21a1,1,0,0,1-1-.81A61,61,0,0,1,9,10a1,1,0,0,1,1-1h8a1,1,0,0,1,1,1,61,61,0,0,1-.83,10.18,1,1,0,0,1-1,.81Z" style="fill: none; stroke: rgb(0, 0, 0); stroke-linecap: round; stroke-linejoin: round; stroke-width: 2;"></path></svg>